<!DOCTYPE svg PUBLIC "-//W3C//DTD SVG 1.1//EN" "http://www.w3.org/Graphics/SVG/1.1/DTD/svg11.dtd">
<!-- Uploaded to: SVG Repo, www.svgrepo.com, Transformed by: SVG Repo Mixer Tools -->
<svg fill="#ffffff" width="171px" height="171px" viewBox="0 0 24.00 24.00" role="img" xmlns="http://www.w3.org/2000/svg" stroke="#ffffff" stroke-width="0.00024000000000000003">
<g id="SVGRepo_bgCarrier" stroke-width="0"/>
<g id="SVGRepo_tracerCarrier" stroke-linecap="round" stroke-linejoin="round" stroke="#CCCCCC" stroke-width="1.152">
<title>Google Scholar icon</title>
<path d="M12 24a7 7 0 1 1 0-14 7 7 0 0 1 0 14zm0-24L0 9.5l4.838 3.94A8 8 0 0 1 12 9a8 8 0 0 1 7.162 4.44L24 9.5z"/>
</g>
<g id="SVGRepo_iconCarrier">
<title>Google Scholar icon</title>
<path d="M12 24a7 7 0 1 1 0-14 7 7 0 0 1 0 14zm0-24L0 9.5l4.838 3.94A8 8 0 0 1 12 9a8 8 0 0 1 7.162 4.44L24 9.5z"/>
</g>
</svg>